<svg width="1440" height="716" viewBox="0 0 1440 716" fill="none" xmlns="http://www.w3.org/2000/svg">
<rect width="1440" height="716" fill="white"/>
<rect width="360" height="360" fill="#F8F7FA"/>
<path d="M67.3896 166.646C67.3896 166.646 57.7979 188.276 89.0141 193.081" stroke="#2B2B2B" stroke-width="6" stroke-linecap="round" stroke-linejoin="round"/>
<path d="M293.319 150.493V144.215C293.371 142.505 292.03 141.074 290.32 141.017H254.039C236.558 128.586 212.272 120.874 185.41 120.874C132.176 120.874 89.0137 151.15 89.0137 188.496C89.0137 203.027 95.5504 216.484 106.667 227.51L106.279 227.342V264.75H140.809L153.278 252.281C174.382 257.415 196.41 257.415 217.514 252.281L229.983 264.75H264.513V227.342C277.942 219.573 293.288 199.142 293.288 193.1V178.424H280.714C279.453 172.66 277.234 167.148 274.148 162.118L291.562 153.409C292.655 152.851 293.336 151.72 293.319 150.493Z" fill="#ED6745"/>
<path d="M265.982 178.424C268.366 178.424 270.299 175.848 270.299 172.669C270.299 169.491 268.366 166.914 265.982 166.914C263.598 166.914 261.666 169.491 261.666 172.669C261.666 175.848 263.598 178.424 265.982 178.424Z" fill="#2B2B2B"/>
<path fill-rule="evenodd" clip-rule="evenodd" d="M131.166 141.447C146.756 134.193 165.419 129.986 185.412 129.986C202.968 129.986 219.47 133.224 233.778 138.918C235.008 139.408 235.608 140.803 235.119 142.033C234.629 143.264 233.235 143.864 232.004 143.374C218.285 137.914 202.386 134.782 185.412 134.782C166.078 134.782 148.11 138.853 133.189 145.795C131.989 146.354 130.562 145.833 130.004 144.632C129.445 143.432 129.966 142.005 131.166 141.447Z" fill="#2B2B2B"/>
<path d="M143.467 167.696C163.473 167.696 179.69 151.479 179.69 131.473C179.69 111.468 163.473 95.25 143.467 95.25C123.462 95.25 107.244 111.468 107.244 131.473C107.244 151.479 123.462 167.696 143.467 167.696Z" fill="#41AA87"/>
<path d="M143.467 162.608C160.662 162.608 174.601 148.669 174.601 131.474C174.601 114.278 160.662 100.339 143.467 100.339C126.272 100.339 112.332 114.278 112.332 131.474C112.332 148.669 126.272 162.608 143.467 162.608Z" fill="#48C09A"/>
<path d="M148.057 136.648C148.088 135.713 147.728 134.808 147.064 134.149C146.402 133.502 145.232 132.888 143.563 132.308C141.485 131.668 140.028 130.895 139.194 129.987C138.335 129.036 137.883 127.785 137.937 126.505C137.882 125.152 138.381 123.836 139.318 122.86C140.329 121.888 141.662 121.321 143.064 121.268V118.477H144.469V121.258C145.918 121.32 147.278 121.975 148.229 123.071C149.112 124.131 149.558 125.579 149.558 127.387H147.917C147.984 126.141 147.584 124.915 146.795 123.949C146.014 123.086 144.888 122.618 143.726 122.673C142.614 122.605 141.52 122.973 140.676 123.699C139.931 124.413 139.531 125.413 139.577 126.442C139.523 127.411 139.891 128.355 140.585 129.032C141.6 129.835 142.764 130.429 144.009 130.783C145.244 131.166 146.425 131.704 147.524 132.385C148.208 132.835 148.771 133.446 149.164 134.164C149.548 134.926 149.735 135.771 149.711 136.624C149.767 137.983 149.255 139.304 148.296 140.269C147.234 141.242 145.857 141.802 144.416 141.847V144.465H143.026V141.861C141.181 141.743 139.752 141.161 138.738 140.115C137.725 139.07 137.219 137.644 137.223 135.838H138.877C138.809 137.082 139.262 138.299 140.129 139.195C141.085 140.055 142.346 140.496 143.63 140.418C144.786 140.468 145.92 140.095 146.819 139.367C147.629 138.7 148.086 137.697 148.057 136.648Z" fill="#F2F2F2"/>
<path fill-rule="evenodd" clip-rule="evenodd" d="M141.865 117.277H145.668V120.212C147.005 120.514 148.223 121.235 149.134 122.285L149.142 122.294L149.15 122.304C150.261 123.638 150.756 125.387 150.756 127.387V128.586H146.652L146.72 127.323C146.77 126.386 146.473 125.463 145.886 124.731C145.346 124.148 144.576 123.833 143.782 123.87L143.717 123.873L143.652 123.869C142.863 123.821 142.087 124.078 141.482 124.587C141.002 125.059 140.745 125.714 140.775 126.388L140.778 126.449L140.774 126.509C140.741 127.112 140.961 127.701 141.381 128.133C142.26 128.817 143.264 129.325 144.336 129.629L144.35 129.633L144.364 129.637C145.696 130.05 146.969 130.631 148.155 131.365L148.169 131.374L148.183 131.383C149.031 131.941 149.729 132.698 150.216 133.588L150.226 133.606L150.235 133.625C150.701 134.552 150.933 135.579 150.91 136.616C150.968 138.294 150.33 139.921 149.147 141.113L149.127 141.134L149.106 141.153C148.121 142.055 146.911 142.661 145.615 142.914V145.664H141.826V142.927C140.254 142.654 138.911 142.016 137.877 140.95C136.597 139.629 136.02 137.875 136.023 135.835L136.026 134.638H140.144L140.074 135.903C140.025 136.801 140.346 137.678 140.962 138.331C141.675 138.958 142.608 139.278 143.557 139.221L143.619 139.217L143.682 139.22C144.544 139.257 145.389 138.979 146.061 138.438C146.583 138.006 146.877 137.358 146.858 136.681L146.857 136.644L146.858 136.607C146.878 136.008 146.648 135.427 146.223 135.004C145.758 134.55 144.803 134.01 143.189 133.447C141.052 132.787 139.358 131.937 138.311 130.798L138.307 130.794L138.304 130.79C137.245 129.618 136.684 128.081 136.737 126.504C136.683 124.843 137.301 123.229 138.454 122.029L138.47 122.012L138.487 121.996C139.429 121.09 140.601 120.475 141.865 120.211V117.277Z" fill="#F8F7FA"/>
<rect width="360" height="360" transform="translate(360)" fill="#4261EC"/>
<path d="M539.802 280.487C588.266 280.487 627.554 241.199 627.554 192.734C627.554 144.27 588.266 104.981 539.802 104.981C491.337 104.981 452.049 144.27 452.049 192.734C452.049 241.199 491.337 280.487 539.802 280.487Z" fill="#FFDB64"/>
<path d="M513.167 193.662C517.434 193.662 520.892 189.052 520.892 183.365C520.892 177.678 517.434 173.067 513.167 173.067C508.9 173.067 505.441 177.678 505.441 183.365C505.441 189.052 508.9 193.662 513.167 193.662Z" fill="#2B2B2B"/>
<path d="M515.842 181.2C516.898 181.2 517.754 180.344 517.754 179.288C517.754 178.232 516.898 177.376 515.842 177.376C514.786 177.376 513.93 178.232 513.93 179.288C513.93 180.344 514.786 181.2 515.842 181.2Z" fill="white"/>
<path d="M566.431 193.662C570.697 193.662 574.156 189.052 574.156 183.365C574.156 177.678 570.697 173.067 566.431 173.067C562.164 173.067 558.705 177.678 558.705 183.365C558.705 189.052 562.164 193.662 566.431 193.662Z" fill="#2B2B2B"/>
<path d="M569.101 181.2C570.157 181.2 571.014 180.344 571.014 179.288C571.014 178.232 570.157 177.376 569.101 177.376C568.045 177.376 567.189 178.232 567.189 179.288C567.189 180.344 568.045 181.2 569.101 181.2Z" fill="white"/>
<path d="M462.496 150.854C462.496 157.683 497.103 163.223 539.802 163.223C582.501 163.223 617.108 157.683 617.108 150.854H462.496Z" fill="#939393"/>
<path d="M522.841 82.6503L466.006 104.507C462.024 106.039 459.398 109.864 459.398 114.129V141.063H620.195V114.129C620.195 109.864 617.569 106.039 613.588 104.507L556.763 82.6503C545.846 78.4499 533.758 78.4499 522.841 82.6503Z" fill="#2B2B2B"/>
<path d="M621.602 141.062H457.991C454.576 141.062 451.807 143.831 451.807 147.247C451.807 150.663 454.576 153.431 457.991 153.431H621.602C625.017 153.431 627.786 150.663 627.786 147.247C627.786 143.831 625.017 141.062 621.602 141.062Z" fill="#AEAEAF"/>
<path d="M521.691 98.2861H555.706V115.293C555.706 124.686 548.092 132.301 538.699 132.301C529.306 132.301 521.691 124.686 521.691 115.293V98.2861Z" fill="url(#paint0_radial_1434_465)"/>
<rect width="360" height="360" transform="translate(720)" fill="#FFD348"/>
<path d="M972.044 244.73H827.928V178.33C827.928 156.819 845.366 139.38 866.878 139.38H933.094C943.424 139.38 953.331 143.484 960.636 150.788C967.94 158.093 972.044 168 972.044 178.33V244.73Z" fill="#2B2B2B"/>
<path d="M836.295 189.086V178.33C836.313 161.436 850.004 147.745 866.899 147.727H933.114C950.009 147.745 963.7 161.436 963.718 178.33V189.086H836.295Z" fill="#D7E4FF"/>
<path d="M860.611 244.729H818.322V214.771C818.325 207.978 823.833 202.474 830.625 202.474H840.418C851.559 202.474 860.591 211.503 860.595 222.644L860.611 244.729Z" fill="#3A3A3A"/>
<path d="M981.652 244.73H939.363V222.634C939.363 217.283 941.489 212.152 945.273 208.369C949.057 204.586 954.189 202.461 959.54 202.463H969.333C976.125 202.463 981.632 207.968 981.636 214.76L981.652 244.73Z" fill="#3A3A3A"/>
<path d="M836.59 233.523C841.366 233.523 845.237 229.652 845.237 224.876C845.237 220.101 841.366 216.229 836.59 216.229C831.815 216.229 827.943 220.101 827.943 224.876C827.943 229.652 831.815 233.523 836.59 233.523Z" fill="#FFDB64"/>
<path d="M963.397 233.523C968.173 233.523 972.044 229.652 972.044 224.876C972.044 220.101 968.173 216.229 963.397 216.229C958.621 216.229 954.75 220.101 954.75 224.876C954.75 229.652 958.621 233.523 963.397 233.523Z" fill="#FFDB64"/>
<path d="M844.514 283.475H838.282C832.582 283.46 827.965 278.842 827.949 273.142V248.893H854.864V273.142C854.849 278.849 850.221 283.469 844.514 283.475Z" fill="#2B2B2B"/>
<path d="M961.7 283.475H955.468C949.767 283.46 945.15 278.842 945.135 273.142V248.893H972.033V273.142C972.017 278.842 967.4 283.46 961.7 283.475Z" fill="#2B2B2B"/>
<path d="M982.537 243.128H817.455C815.823 243.128 814.5 244.451 814.5 246.083V247.858C814.5 249.489 815.823 250.812 817.455 250.812H982.537C984.169 250.812 985.492 249.489 985.492 247.858V246.083C985.492 244.451 984.169 243.128 982.537 243.128Z" fill="#848484"/>
<path d="M859.053 76.5817L848.742 103.697C847.4 107.229 847.879 111.196 850.025 114.308C852.17 117.419 855.708 119.277 859.487 119.277C863.114 119.277 866.51 117.495 868.57 114.509C870.63 111.524 871.091 107.716 869.803 104.326L859.264 76.5817C859.245 76.5408 859.204 76.5146 859.159 76.5146C859.113 76.5146 859.072 76.5408 859.053 76.5817Z" fill="#4A68ED"/>
<path d="M899.78 76.5812L889.481 103.696C888.138 107.229 888.617 111.196 890.763 114.307C892.908 117.418 896.446 119.276 900.225 119.276C903.852 119.276 907.248 117.494 909.308 114.509C911.368 111.523 911.829 107.716 910.542 104.325L900.003 76.5812C899.987 76.5328 899.942 76.5 899.891 76.5C899.841 76.5 899.796 76.5328 899.78 76.5812Z" fill="#4A68ED"/>
<path d="M940.504 76.5809L930.205 103.696C928.864 107.23 929.346 111.196 931.492 114.307C933.638 117.417 937.176 119.275 940.955 119.276C944.581 119.275 947.975 117.491 950.034 114.506C952.092 111.521 952.553 107.715 951.266 104.325L940.732 76.5809C940.714 76.5339 940.669 76.5029 940.618 76.5029C940.568 76.5029 940.522 76.5339 940.504 76.5809Z" fill="#4A68ED"/>
<rect width="360" height="360" transform="translate(1080)" fill="#E8BFDA"/>
<path fill-rule="evenodd" clip-rule="evenodd" d="M1343.39 95C1349.87 95 1355.12 100.254 1355.12 106.736V210.013C1355.12 216.494 1349.87 221.749 1343.39 221.749H1234.59L1191.79 264.557C1191.27 265.071 1190.59 265.374 1189.87 265.412L1189.71 265.416C1188.13 265.416 1186.85 264.171 1186.78 262.61L1186.78 262.482L1186.78 221.749H1176.74C1170.25 221.749 1165 216.494 1165 210.013V106.736C1165 100.254 1170.25 95 1176.74 95H1343.39Z" fill="#ED6745"/>
<path d="M1238.64 163.656C1242.05 163.656 1244.81 159.978 1244.81 155.441C1244.81 150.904 1242.05 147.226 1238.64 147.226C1235.24 147.226 1232.48 150.904 1232.48 155.441C1232.48 159.978 1235.24 163.656 1238.64 163.656Z" fill="#2F2F2F"/>
<path d="M1240.99 153.68C1241.8 153.68 1242.46 153.023 1242.46 152.213C1242.46 151.403 1241.8 150.746 1240.99 150.746C1240.18 150.746 1239.52 151.403 1239.52 152.213C1239.52 153.023 1240.18 153.68 1240.99 153.68Z" fill="#F8F7FA"/>
<path d="M1280.89 163.656C1284.3 163.656 1287.06 159.978 1287.06 155.441C1287.06 150.904 1284.3 147.226 1280.89 147.226C1277.49 147.226 1274.73 150.904 1274.73 155.441C1274.73 159.978 1277.49 163.656 1280.89 163.656Z" fill="#2F2F2F"/>
<path d="M1283.24 153.68C1284.05 153.68 1284.71 153.023 1284.71 152.213C1284.71 151.403 1284.05 150.746 1283.24 150.746C1282.43 150.746 1281.77 151.403 1281.77 152.213C1281.77 153.023 1282.43 153.68 1283.24 153.68Z" fill="#F8F7FA"/>
<path fill-rule="evenodd" clip-rule="evenodd" d="M1228.82 132.173C1229.68 130.799 1231.49 130.381 1232.86 131.24L1251.64 142.976C1253.02 143.835 1253.43 145.645 1252.58 147.019C1251.72 148.393 1249.91 148.811 1248.53 147.952L1229.75 136.216C1228.38 135.358 1227.96 133.547 1228.82 132.173Z" fill="#2F2F2F"/>
<path fill-rule="evenodd" clip-rule="evenodd" d="M1291.32 132.208C1292.16 133.593 1291.72 135.398 1290.34 136.238L1270.97 147.974C1269.58 148.813 1267.78 148.371 1266.94 146.985C1266.1 145.599 1266.54 143.795 1267.93 142.955L1287.29 131.219C1288.68 130.379 1290.48 130.822 1291.32 132.208Z" fill="#2F2F2F"/>
<rect width="360" height="360" transform="translate(0 356)" fill="#7B4FE8"/>
<path d="M254.574 515.648H104.444C100.333 515.648 97 518.981 97 523.093V628.556C97 632.667 100.333 636 104.444 636H254.574C258.686 636 262.019 632.667 262.019 628.556V523.093C262.019 518.981 258.686 515.648 254.574 515.648Z" fill="#F8F7FA"/>
<path d="M97 602.5H262.019V628.133C262.019 632.478 258.484 636 254.124 636H104.894C100.534 636 97 632.478 97 628.133V602.5Z" fill="#AFAFAF"/>
<path d="M236.584 507.964L158.883 430L106.307 482.748L148.33 524.917H219.694L236.584 507.964Z" fill="#48C09A"/>
<path fill-rule="evenodd" clip-rule="evenodd" d="M239 526H120V523H239V526Z" fill="#2B2B2B"/>
<path fill-rule="evenodd" clip-rule="evenodd" d="M166.423 469.269C168.033 468.686 169.812 469.518 170.396 471.129L181.184 500.907C181.569 501.969 181.346 503.156 180.602 504.006C179.858 504.856 178.711 505.235 177.608 504.994L158.376 500.807C156.702 500.442 155.641 498.79 156.005 497.116C156.37 495.442 158.022 494.381 159.696 494.745L173.437 497.737L164.563 473.242C163.979 471.632 164.812 469.853 166.423 469.269Z" fill="#F8F7FA"/>
<rect width="360" height="360" transform="translate(360 356)" fill="#2B2B2B"/>
<g clip-path="url(#clip0_1434_465)">
<path d="M612.113 562.673C623.435 562.673 632.614 553.47 632.614 542.117C632.614 530.765 623.435 521.562 612.113 521.562C600.79 521.562 591.611 530.765 591.611 542.117C591.611 553.47 600.79 562.673 612.113 562.673Z" fill="#48C09A"/>
<path d="M489.476 542.644L479.02 545.455C476.416 546.154 474.87 548.838 475.568 551.449L492.078 613.206C492.776 615.817 495.453 617.366 498.056 616.666L508.513 613.856C511.117 613.156 512.662 610.472 511.964 607.861L495.455 546.105C494.757 543.494 492.08 541.944 489.476 542.644Z" fill="#48C09A"/>
<path d="M602.545 455.156C600.758 455.156 599.06 457.501 597.517 461.724C573.758 474.611 549.297 486.152 524.249 496.293C492.555 509.018 462.965 514.695 452.422 516.462C450.07 516.856 448.346 518.897 448.346 521.287V550.222C448.346 552.613 450.07 554.654 452.422 555.048C462.965 556.815 492.555 562.502 524.249 575.212C549.297 585.356 573.757 596.899 597.517 609.785C599.06 614.009 600.758 616.354 602.545 616.354C609.559 616.354 615.236 580.268 615.236 535.755C615.236 491.242 609.559 455.156 602.545 455.156Z" fill="#ED6745"/>
</g>
<rect width="360" height="360" transform="translate(720 356)" fill="#ED6745"/>
<path d="M901.061 514.41H856.562C853.49 514.41 851 516.901 851 519.973V628.438C851 631.51 853.49 634.001 856.562 634.001H901.061C904.133 634.001 906.623 631.51 906.623 628.438V519.973C906.623 516.901 904.133 514.41 901.061 514.41Z" fill="#E2E2E2"/>
<path d="M895.963 503.284H861.661C860.381 503.284 859.344 504.322 859.344 505.602V512.091C859.344 513.371 860.381 514.409 861.661 514.409H895.963C897.243 514.409 898.28 513.371 898.28 512.091V505.602C898.28 504.322 897.243 503.284 895.963 503.284Z" fill="#E8BFDA"/>
<path d="M903.773 525.989C927.706 525.989 947.108 506.587 947.108 482.654C947.108 458.72 927.706 439.318 903.773 439.318C879.839 439.318 860.438 458.72 860.438 482.654C860.438 506.587 879.839 525.989 903.773 525.989Z" fill="#F8F7FA"/>
<path fill-rule="evenodd" clip-rule="evenodd" d="M903.772 441.635C881.119 441.635 862.754 460 862.754 482.653C862.754 505.306 881.119 523.671 903.772 523.671C926.426 523.671 944.79 505.306 944.79 482.653C944.79 460 926.426 441.635 903.772 441.635ZM858.119 482.653C858.119 457.44 878.559 437 903.772 437C928.986 437 949.425 457.44 949.425 482.653C949.425 507.866 928.986 528.306 903.772 528.306C878.559 528.306 858.119 507.866 858.119 482.653Z" fill="#ED6745"/>
<path d="M894.798 497.912H889.727V473.392L882.223 475.941V471.663L894.131 467.282H894.78L894.798 497.912Z" fill="#2B2B2B"/>
<path d="M924.626 475.44C924.648 476.857 924.248 478.248 923.476 479.436C922.694 480.627 921.607 481.587 920.329 482.217C921.815 482.866 923.09 483.918 924.01 485.253C924.869 486.544 925.318 488.064 925.298 489.615C925.298 492.297 924.39 494.425 922.573 495.998C920.756 497.571 918.337 498.357 915.318 498.357C912.287 498.357 909.86 497.568 908.036 495.989C906.213 494.41 905.302 492.285 905.302 489.615C905.28 488.05 905.733 486.515 906.599 485.212C907.502 483.883 908.769 482.843 910.247 482.217C908.981 481.584 907.908 480.623 907.137 479.436C906.367 478.248 905.968 476.856 905.992 475.44C905.992 472.845 906.831 470.783 908.509 469.257C910.187 467.73 912.451 466.969 915.3 466.972C918.164 466.972 920.436 467.733 922.114 469.257C923.792 470.78 924.629 472.842 924.626 475.44ZM920.204 489.346C920.264 487.993 919.776 486.673 918.85 485.684C917.907 484.739 916.61 484.235 915.277 484.294C913.95 484.234 912.66 484.739 911.726 485.684C910.809 486.681 910.33 488.003 910.396 489.355C910.332 490.677 910.803 491.969 911.703 492.939C912.669 493.868 913.979 494.353 915.318 494.278C916.863 494.278 918.062 493.846 918.915 492.98C919.768 492.115 920.198 490.902 920.204 489.342V489.346ZM919.555 475.635C919.599 474.434 919.187 473.262 918.401 472.353C916.698 470.658 913.953 470.632 912.217 472.293C910.702 474.26 910.702 477.001 912.217 478.968C913.949 480.617 916.67 480.617 918.401 478.968C919.205 478.048 919.619 476.851 919.555 475.63V475.635Z" fill="#2B2B2B"/>
<path fill-rule="evenodd" clip-rule="evenodd" d="M936.612 453.087L874.207 515.497L870.93 512.219L933.335 449.81L936.612 453.087Z" fill="#ED6745"/>
<path fill-rule="evenodd" clip-rule="evenodd" d="M887.387 535.041H906.623V537.359H887.387V535.041Z" fill="#979797"/>
<path fill-rule="evenodd" clip-rule="evenodd" d="M895.73 544.336H906.623V546.654H895.73V544.336Z" fill="#979797"/>
<path fill-rule="evenodd" clip-rule="evenodd" d="M895.73 553.634H906.623V555.951H895.73V553.634Z" fill="#979797"/>
<path fill-rule="evenodd" clip-rule="evenodd" d="M887.387 562.931H906.623V565.248H887.387V562.931Z" fill="#979797"/>
<path fill-rule="evenodd" clip-rule="evenodd" d="M895.73 572.227H906.623V574.544H895.73V572.227Z" fill="#979797"/>
<path fill-rule="evenodd" clip-rule="evenodd" d="M895.73 581.523H906.623V583.841H895.73V581.523Z" fill="#979797"/>
<path fill-rule="evenodd" clip-rule="evenodd" d="M887.387 590.818H906.623V593.136H887.387V590.818Z" fill="#979797"/>
<path fill-rule="evenodd" clip-rule="evenodd" d="M895.73 600.115H906.623V602.433H895.73V600.115Z" fill="#979797"/>
<path fill-rule="evenodd" clip-rule="evenodd" d="M895.73 609.41H906.623V611.728H895.73V609.41Z" fill="#979797"/>
<path fill-rule="evenodd" clip-rule="evenodd" d="M887.387 618.708H906.623V621.026H887.387V618.708Z" fill="#979797"/>
<rect width="360" height="360" transform="translate(1080 356)" fill="#4AD3A8"/>
<path fill-rule="evenodd" clip-rule="evenodd" d="M1182.33 490.01H1337.61V638.79C1337.61 642.779 1334.38 646.012 1330.39 646.012H1189.56C1185.57 646.012 1182.33 642.779 1182.33 638.79V490.01Z" fill="#2B2B2B"/>
<path d="M1301.5 519.622H1218.44C1214.46 519.622 1211.22 522.856 1211.22 526.844V609.901C1211.22 613.89 1214.46 617.124 1218.44 617.124H1301.5C1305.49 617.124 1308.72 613.89 1308.72 609.901V526.844C1308.72 522.856 1305.49 519.622 1301.5 519.622Z" fill="#48C09A"/>
<path fill-rule="evenodd" clip-rule="evenodd" d="M1303.68 437.954C1310.34 440.887 1315.28 445.292 1318.12 451.263C1320.96 457.213 1321.5 464.76 1320.24 473.548L1313.09 472.527C1314.25 464.463 1313.58 458.528 1311.6 454.368C1309.63 450.227 1306.14 446.928 1300.77 444.565L1303.68 437.954Z" fill="#2B2B2B"/>
<path d="M1301.03 432.971L1289.64 427.898C1286.05 426.298 1281.83 427.915 1280.23 431.51C1278.63 435.105 1280.25 439.318 1283.84 440.918L1295.24 445.991C1298.83 447.591 1303.04 445.974 1304.64 442.379C1306.25 438.784 1304.63 434.571 1301.03 432.971Z" fill="#F8F7FA"/>
<path d="M1350.61 471.232H1168.61C1166.62 471.232 1165 472.849 1165 474.844V486.399C1165 488.394 1166.62 490.01 1168.61 490.01H1350.61C1352.61 490.01 1354.23 488.394 1354.23 486.399V474.844C1354.23 472.849 1352.61 471.232 1350.61 471.232Z" fill="#2B2B2B"/>
<path fill-rule="evenodd" clip-rule="evenodd" d="M1276.87 546.688C1278.67 547.537 1279.45 549.688 1278.6 551.493L1261.27 588.3C1260.71 589.49 1259.55 590.281 1258.24 590.366C1256.93 590.451 1255.67 589.817 1254.96 588.71L1241.4 567.54C1240.33 565.86 1240.82 563.627 1242.5 562.551C1244.18 561.476 1246.41 561.965 1247.49 563.645L1257.52 579.311L1272.06 548.417C1272.91 546.612 1275.06 545.838 1276.87 546.688Z" fill="#F8F7FA"/>
<defs>
<radialGradient id="paint0_radial_1434_465" cx="0" cy="0" r="1" gradientUnits="userSpaceOnUse" gradientTransform="translate(538.699 115.293) scale(17.0073)">
<stop stop-color="#FFDB64"/>
<stop offset="1" stop-color="#EBCA5C"/>
</radialGradient>
<clipPath id="clip0_1434_465">
<rect width="185" height="162" fill="white" transform="translate(448 455)"/>
</clipPath>
</defs>
</svg>
